<?xml version="1.0" standalone="no"?>
<svg viewBox="0 0 200 200" xmlns="http://www.w3.org/2000/svg">
  <path fill="#76D9C0" d="M31.7,-56.1C38.7,-50.9,40.4,-37.6,50.3,-26.9C60.2,-16.2,78.3,-8.1,85.5,4.1C92.7,16.4,88.9,32.8,75.1,36.6C61.2,40.5,37.2,31.7,23,36.7C8.8,41.6,4.4,60.2,-4.2,67.5C-12.8,74.7,-25.6,70.6,-33.2,61.9C-40.9,53.1,-43.4,39.8,-44.9,28.8C-46.4,17.7,-46.9,8.9,-45.2,1C-43.5,-6.9,-39.7,-13.8,-38.5,-25.4C-37.3,-36.9,-38.7,-53.2,-32.7,-58.9C-26.7,-64.7,-13.3,-60.1,-0.5,-59.2C12.3,-58.4,24.7,-61.3,31.7,-56.1Z" transform="translate(100 100)" />
</svg>
