<?xml version="1.0" standalone="no"?>
<svg viewBox="0 0 200 200" xmlns="http://www.w3.org/2000/svg">
  <path fill="#76D9C0" d="M23.8,-39.5C33.7,-35.4,46.7,-35,44.3,-29C41.8,-23,23.9,-11.5,23.9,0C23.9,11.5,41.8,23,44.3,29C46.8,35,33.8,35.5,23.8,29.7C13.8,24,6.9,12.1,-3.2,17.7C-13.4,23.3,-26.8,46.5,-30.1,48.4C-33.5,50.3,-26.8,30.9,-35.1,19.3C-43.5,7.7,-67,3.9,-77.9,-6.3C-88.9,-16.5,-87.3,-33,-76.1,-39.8C-65,-46.6,-44.2,-43.6,-30,-45.2C-15.7,-46.7,-7.8,-52.7,-0.5,-51.9C6.9,-51.1,13.8,-43.5,23.8,-39.5Z" transform="translate(100 100)" />
</svg>
